<svg xmlns="http://www.w3.org/2000/svg" viewBox="45.98 47.53 182.19 182.19">
  <path fill="#FE5716" d="M143.99,86.16
					c0.55-4.72-0.15-11.63,3.58-14.87c1.09-5.04,9.02-3.87,7.78-7.08c-0.76-2.01-4.49-1.06-6-0.68c-1.15,0.28-12.01,3.72-16.2,4.18
					c-1.77-0.49-3.54-0.98-5.31-1.48c-6.82,0.92-10.77,6.35-14.56,10.68c-3.18,3.61-7.49,12.47-4.07,17.76
					c-0.19,1.15-0.39,2.31-0.58,3.47l7.77,11.34c2.67,1.92,3.02,3.35,5.91,5.25c0.59,0.89,1.18,1.78,1.78,2.66
					c2.36,1.55,9.3,1.58,10.47,0.56c11.19,1.04,9.98-21.6,13.53-26.34C147.63,89.47,145.75,87.25,143.99,86.16 M95.79,154.13
					c2.37-0.61,6.4-0.92,8.53-1.98c3.37-1.69,14.97-9.8,11.28-16.42c-1.15-13.91-17.93-2.15-25.08-7.02
					c-7.25-0.94-15.38-14.64-17.55-20.49c-0.86-2.32-0.5-1.52-1.67-3.36c0.02-0.19-0.74,0.64-0.73,0.45
					c-2.12,2.46-1.75,4.61-2.08,10.62c-0.95-0.06-1.9-0.12-2.84-0.18c-0.19,2.18-0.4,3.36-1.42,4.47c-0.21,0.37-0.43,0.74-0.64,1.1
					c-1.79-0.6-0.89,0.25-1.63-1.24c-6.66,0.32-6.17,7.02-9.23,10.83C52.88,143.41,77.63,158.84,95.79,154.13 M177.98,116.16
					c-10.81,1.64-17.41,5.08-21.48,7.91c-2.84,1.98-3.68,3.31-4.29,4.15c-0.62,0.84-1.04,2.69-0.73,4.64c0.32,1.94,1.1,4,2.79,5.13
					c13.25-0.98,36.27-1.82,40.75,9.33c0.24,1.54,0.58,2.46,0.62,2.85c4.38-1.09,1.18-0.71,7.64,0.32c1.49,0.23,5.13-0.6,7.56-1.18
					c1.1-0.27,1.72-1.27,1.72-1.27s-0.21-1.06-0.14-1.63c0,0,2.26,0.16,3.19-0.55c6.14-1,2.92-3.89,5.81-7.12
					C219.65,117.92,198.3,113.08,177.98,116.16 M154.31,161.45c-3.07,2.35-4.37,1.76-6.17,5.4c-0.18,0,0.28,0.56,0.09,0.56
					c1.83,3.65,6.04,5.14,9.12,7.71c0.97,0.81,3.57,5.33,4.81,5.66c1.39,1.66,2.3,6.26,3.21,6.26c0.95,1.27-0.07,4.32,0.85,5.5
					c0.06,5.44-0.69,5.83-1.64,6.87c0,0.38,0.52,1.37,0.52,1.74c0.26,0.26,2.44,1.83,3.39,1.63c2.95,0.09,15.11,9.57,16.07,11.38
					c8.72,0.67,8.09-2,14.1-4.55c1.62-0.69,2.92-0.03,3.98-1.15c1.11-1.14,1.21-3.4,2.28-4.54
					C205.06,182.48,175.9,162.19,154.31,161.45 M119.99,166.34c-1.21,1.29-4.55,1.77-5.48,3.24c-1.42,2.23-4.69,7.32-7.25,9.75
					c-8.26,7.82-25.92,11.76-34.62,4.27c-0.57,0.05-0.24,0.37,0.44,2.5c0.64,4.05,3.91,13.58,2.7,16.01c0.78,2.7,1.61,1.72,3.08,3.2
					c1.01,1.02,1.43,3.67,2.6,4.38c1.32-0.09,2.65-0.19,3.97-0.28c0.25,0.74,0.49,1.49,0.73,2.23c1.7-0.12,3.4-0.24,5.11-0.36
					c0.96,0.21,3.86,1.7,4.71,1.95c1.89-0.13,3.79-0.27,5.68-0.41c4.33,1.15,8.12-0.66,11.76-3.11c2.04-1.38,4.28-1.16,6.09-2.71
					c2.63-2.25,6.2-6.65,7.87-9.69c4.11-7.45,2.72-25.3-1.01-29.71C124.9,166.01,123.18,165.98,119.99,166.34"/>
</svg>
